<?xml version="1.0" encoding="UTF-8" standalone="no"?>
<!-- Created with Inkscape (http://www.inkscape.org/) -->

<svg
   version="1.1"
   id="svg2"
   xml:space="preserve"
   width="389.06345"
   height="65.746399"
   viewBox="0 0 389.06345 65.7464"
   sodipodi:docname="00a51358233b669e1a8b4ef8eac86c3b.eps"
   xmlns:inkscape="http://www.inkscape.org/namespaces/inkscape"
   xmlns:sodipodi="http://sodipodi.sourceforge.net/DTD/sodipodi-0.dtd"
   xmlns="http://www.w3.org/2000/svg"
   xmlns:svg="http://www.w3.org/2000/svg"><defs
     id="defs6" /><sodipodi:namedview
     id="namedview4"
     pagecolor="#ffffff"
     bordercolor="#666666"
     borderopacity="1.0"
     inkscape:pageshadow="2"
     inkscape:pageopacity="0.0"
     inkscape:pagecheckerboard="0" /><g
     id="g8"
     inkscape:groupmode="layer"
     inkscape:label="ink_ext_XXXXXX"
     transform="matrix(1.3333333,0,0,-1.3333333,-27.943199,91.696931)"><g
       id="g10"
       transform="scale(0.1)"><path
         d="m 2920.24,687.523 74.16,-74.156 -218.18,-218.179 -35.58,35.578 -57.86,-57.864 93.17,-93.172 0.27,0.274 0.27,-0.274 275.77,275.774 75.29,-75.285 v 207.304 h -207.31"
         style="fill:#3cab9c;fill-opacity:1;fill-rule:nonzero;stroke:none"
         id="path12" /><path
         d="m 2558.04,613.57 74.16,74.157 h -207.31 l 0.02,-0.012 h -0.01 l -0.01,-0.192 V 480.219 l 75.29,75.285 103.85,-103.852 57.5,57.496 -103.49,104.422"
         style="fill:#3cab9c;fill-opacity:1;fill-rule:nonzero;stroke:none"
         id="path14" /><path
         d="m 3127.55,194.777 v 0 207.157 l -75.29,-75.286 -104.11,104.114 -57.58,-57.524 103.37,-104.304 -74.15,-74.157 h 207.75 0.01 v 0"
         style="fill:#2950aa;fill-opacity:1;fill-rule:nonzero;stroke:none"
         id="path16" /><path
         d="m 2811.15,452.031 57.86,57.864 -92.52,92.523 -0.27,-0.273 -0.27,0.273 -275.77,-275.77 -75.29,75.286 V 194.629 h 207.31 l -74.16,74.156 218.18,218.18 34.93,-34.934"
         style="fill:#2950aa;fill-opacity:1;fill-rule:nonzero;stroke:none"
         id="path18" /><path
         d="M 310.086,677.016 V 202.871 H 209.574 v 474.145 h 100.512"
         style="fill:#2950aa;fill-opacity:1;fill-rule:nonzero;stroke:none"
         id="path20" /><path
         d="M 381.473,463.277 481.98,362.953 V 202.879 H 381.473 Z M 807.66,679.508 V 202.871 H 707.137 v 255.922 l -53.317,-53.32 -20.543,-20.524 -5.523,-5.523 -18.383,-18.363 -13.32,-13.305 -67.641,67.64 -46.43,46.407 -100.507,100.515 v 117.188 h 25.004 l 95.617,-95.617 93.98,-94 189.61,189.617 h 21.976"
         style="fill:#2950aa;fill-opacity:1;fill-rule:nonzero;stroke:none"
         id="path22" /><path
         d="m 1267.53,541.129 c 0,-34.172 -12.82,-66.781 -36.06,-91.785 -13.95,-15.016 -30.89,-26.469 -49.54,-33.797 0,0 -1.03,-0.918 -18.66,-5.274 -17.64,-4.355 -20.61,-4.421 -20.61,-4.421 H 980.512 V 202.871 H 880 v 304.086 h 100.512 v -0.215 h 152.118 c 18.96,0 34.39,15.434 34.39,34.387 0,18.973 -15.43,34.387 -34.39,34.387 -0.83,0 -1.6,-0.024 -2.24,-0.082 l -0.25,-0.028 -0.69,-0.097 h -16.32 v 0.207 H 880 v 81.672 l 0.023,18.843 h 258.997 c 0,0 10.76,-1.316 20.56,-3.226 9.83,-1.907 16.88,-4.043 16.88,-4.043 53.21,-18.219 91.07,-68.684 91.07,-127.633"
         style="fill:#2950aa;fill-opacity:1;fill-rule:nonzero;stroke:none"
         id="path24" /><path
         d="m 1439.67,303.387 h 322.32 V 202.871 h -422.86 v 81.672 l 0.02,18.844 v 202.769 l 100.52,-0.625 h 280.14 V 405.016 h -280.14 z m 322.32,372.73 V 575.598 h -422.86 v 81.672 l 0.02,18.847 h 422.84"
         style="fill:#2950aa;fill-opacity:1;fill-rule:nonzero;stroke:none"
         id="path26" /><path
         d="m 2270.88,202.871 h -124.82 l -5.65,7.688 -63.81,86.629 -48.06,65.277 -0.06,-0.086 -0.06,0.062 -62.5,84.641 0.16,0.211 -146.51,199.004 -22.12,30.004 h 124.81 l 5.66,-7.664 100.58,-136.574 100.56,136.574 5.64,7.664 h 124.83 L 2237.42,646.277 2090.9,447.293 2248.77,232.902 Z m -348.45,185.16 62.49,-84.668 -68.35,-92.828 -5.64,-7.664 h -124.84 l 22.11,30.031 114.23,155.129"
         style="fill:#2950aa;fill-opacity:1;fill-rule:nonzero;stroke:none"
         id="path28" /><path
         d="m 1922.43,388.031 62.49,-84.668 -68.35,-92.828 -5.64,-7.664 h -124.84 l 22.11,30.031 114.23,155.129"
         style="fill:#3cab9c;fill-opacity:1;fill-rule:nonzero;stroke:none"
         id="path30" /><path
         d="M 381.473,463.277 481.98,362.953 V 202.879 H 381.473 v 260.398"
         style="fill:#3cab9c;fill-opacity:1;fill-rule:nonzero;stroke:none"
         id="path32" /></g></g></svg>
